#!OML:ASF E:\Mandelcareful walks\Project 1\Capture day 1\Session 1\Subject1.ASF
:FULLY-SPECIFIED
:DEGREES
250
root -16.5577 13.538 0.73182 -166.151 33.531 -189.047
lowerback 26.6284 8.29071 -2.65025
upperback 7.33977 11.3983 -8.6852
thorax -4.78937 6.46391 -11.679
lowerneck -11.4965 22.2585 14.498
upperneck 7.02639 32.7419 -27.5333
head 11.4958 14.1168 -5.50342
rclavicle 8.34896e-014 -8.66701e-014
rhumerus 56.4581 10.6689 -47.5455
rradius 126.904
rwrist 6.74926
rhand -44.4154 -20.9375
rfingers 7.12502
rthumb -17.221 -50.1945
lclavicle 8.34896e-014 -8.66701e-014
lhumerus -16.6208 -33.2498 75.5776
lradius 70.6664
lwrist 9.87514
lhand -19.833 -16.2617
lfingers 7.12502
lthumb 6.50105 13.6185
rfemur -32.1686 -54.9439 12.6985
rtibia 83.61
rfoot -34.4777 -21.0481
rtoes -38.6874
lfemur -75.9468 -6.3555 -13.4173
ltibia 72.6752
lfoot -9.30327 -22.9144
ltoes 7.84951
251
root -16.5593 13.5379 0.725846 -166.169 33.4568 -189.043
lowerback 26.5638 8.28551 -2.70062
upperback 7.3548 11.3862 -8.65784
thorax -4.75946 6.45821 -11.6006
lowerneck -11.5736 22.2674 14.554
upperneck 7.09464 32.7647 -27.5535
head 11.5544 14.112 -5.50074
rclavicle 3.18055e-014 -3.02153e-014
rhumerus 56.4931 10.8875 -47.2472
rradius 127.246
rwrist 6.59439
rhand -44.2099 -21.3896
rfingers 7.12502
rthumb -17.0232 -50.6637
lclavicle 3.18055e-014 -3.02153e-014
lhumerus -16.6058 -32.9681 75.5596
lradius 70.6795
lwrist 9.89965
lhand -19.5104 -16.1629
lfingers 7.12502
lthumb 6.81249 13.7075
rfemur -32.0694 -54.9765 12.631
rtibia 83.5757
rfoot -34.3548 -21.1819
rtoes -38.8794
lfemur -75.9445 -6.27282 -13.5631
ltibia 72.7002
lfoot -9.30158 -23.0551
ltoes 8.00144
252
root -16.5569 13.5415 0.719441 -166.444 33.4603 -189.128
lowerback 26.7292 8.28036 -2.89844
upperback 7.37823 11.3304 -8.64375
thorax -4.85918 6.43046 -11.4935
lowerneck -11.3845 22.3149 14.7253
upperneck 6.87152 32.826 -27.7966
head 11.5426 14.1593 -5.59042
rclavicle -8.74653e-015 9.54166e-015
rhumerus 56.6381 11.1653 -47.0077
rradius 127.413
rwrist 6.48501
rhand -45.0701 -21.6
rfingers 7.12502
rthumb -17.8511 -50.8007
lclavicle -8.74653e-015 9.54166e-015
lhumerus -16.6914 -32.5821 75.4755
lradius 70.7501
lwrist 9.987
lhand -19.0009 -15.9886
lfingers 7.12502
lthumb 7.30426 13.8653
rfemur -31.4861 -54.895 12.1208
rtibia 83.4986
rfoot -34.2827 -21.1311
rtoes -38.8557
lfemur -75.6194 -6.17987 -13.8152
ltibia 72.6724
lfoot -9.26817 -23.2079
ltoes 8.22568
253
root -16.5598 13.5473 0.713825 -166.645 33.489 -189.209
lowerback 26.8962 8.27598 -2.97828
upperback 7.38437 11.3005 -8.65659
thorax -4.94715 6.41639 -11.4915
lowerneck -11.1578 22.3166 14.7343
upperneck 6.52696 32.7996 -28.0115
head 11.4257 14.1797 -5.68666
rclavicle -8.26944e-014 5.56597e-014
rhumerus 56.647 11.2893 -46.8704
rradius 127.545
rwrist 6.479
rhand -45.6854 -21.0911
rfingers 7.12502
rthumb -18.4431 -50.2368
lclavicle -8.26944e-014 5.56597e-014
lhumerus -16.6697 -32.3792 75.3913
lradius 70.7066
lwrist 10.0269
lhand -18.7873 -15.9324
lfingers 7.12502
lthumb 7.51049 13.9143
rfemur -31.137 -54.7627 11.75
rtibia 83.4577
rfoot -34.2484 -21.0739
rtoes -38.7277
lfemur -75.3592 -6.14326 -14.0299
ltibia 72.6321
lfoot -9.31307 -23.2429
ltoes 8.37752
254
root -16.5758 13.549 0.707419 -166.579 33.4806 -189.225
lowerback 26.8639 8.20957 -2.80208
upperback 7.3461 11.2564 -8.74454
thorax -4.93094 6.39895 -11.6762
lowerneck -11.082 22.3097 14.7136
upperneck 6.32803 32.7493 -28.0441
head 11.333 14.1782 -5.71665
rclavicle -5.24792e-014 2.62396e-014
rhumerus 56.5929 11.325 -46.8325
rradius 127.518
rwrist 6.6108
rhand -45.4503 -20.777
rfingers 7.12502
rthumb -18.2169 -49.9439
lclavicle -5.24792e-014 2.62396e-014
lhumerus -16.5695 -32.4397 75.2255
lradius 70.6188
lwrist 9.90076
lhand -18.9137 -15.6607
lfingers 7.12502
lthumb 7.38842 14.1903
rfemur -31.3736 -54.7116 11.7985
rtibia 83.5151
rfoot -34.2106 -21.0557
rtoes -38.6228
lfemur -75.4613 -6.25056 -14.0753
ltibia 72.6308
lfoot -9.47519 -23.1212
ltoes 8.05511
255
root -16.5953 13.5371 0.700303 -166.447 33.5917 -189.187
lowerback 26.7282 8.21465 -2.69126
upperback 7.29749 11.283 -8.78427
thorax -4.88829 6.40948 -11.7685
lowerneck -11.1444 22.3263 14.6897
upperneck 6.44674 32.7738 -27.9089
head 11.3542 14.1845 -5.65926
rclavicle 1.66979e-014 1.74931e-014
rhumerus 56.5222 11.3089 -46.7648
rradius 127.364
rwrist 6.69215
rhand -45.0374 -21.0317
rfingers 7.12502
rthumb -17.8196 -50.2353
lclavicle 1.66979e-014 1.74931e-014
lhumerus -16.5839 -32.6364 75.1416
lradius 70.6339
lwrist 9.81738
lhand -19.1605 -15.3475
lfingers 7.12502
lthumb 7.15023 14.5117
rfemur -31.7326 -54.578 11.9173
rtibia 83.6595
rfoot -34.2868 -20.9541
rtoes -38.4357
lfemur -75.6848 -6.30133 -14.0031
ltibia 72.7139
lfoot -9.65791 -22.9867
ltoes 7.6764
